<svg xmlns="http://www.w3.org/2000/svg" viewBox="0 0 64 64" width="64" height="64">
  <!-- P.E.T Favicon v3 — 미니 캐릭터 -->
  <rect x="2" y="2" width="60" height="60" rx="14" ry="14" fill="#FF6B35"/>

  <!-- 얼굴 -->
  <circle cx="32" cy="34" r="18" fill="#FFF"/>

  <!-- 귀 -->
  <path d="M18 24 C15 13, 20 10, 24 14 C27 17, 26 22, 24 25 Z" fill="#FFF"/>
  <path d="M46 24 C49 13, 44 10, 40 14 C37 17, 38 22, 40 25 Z" fill="#FFF"/>
  <path d="M19.5 23 C17.5 15, 21 12.5, 24 15 C26 17, 25.5 21, 24.5 24 Z" fill="#FFB8C9"/>
  <path d="M44.5 23 C46.5 15, 43 12.5, 40 15 C38 17, 38.5 21, 39.5 24 Z" fill="#FFB8C9"/>

  <!-- 눈 -->
  <ellipse cx="26" cy="32" rx="4" ry="4.5" fill="#2D2D2D"/>
  <circle cx="24.5" cy="30.5" r="1.5" fill="#FFF"/>
  <ellipse cx="38" cy="32" rx="4" ry="4.5" fill="#2D2D2D"/>
  <circle cx="36.5" cy="30.5" r="1.5" fill="#FFF"/>

  <!-- 코 -->
  <path d="M30.5 38 L32 40 L33.5 38 Q32 37 30.5 38Z" fill="#FF8FAB"/>

  <!-- 입 -->
  <path d="M29 41 Q30.5 43 32 41 Q33.5 43 35 41" fill="none" stroke="#2D2D2D" stroke-width="1.2" stroke-linecap="round"/>

  <!-- 볼 -->
  <circle cx="21" cy="36" r="3.5" fill="#FFB8C9" opacity="0.4"/>
  <circle cx="43" cy="36" r="3.5" fill="#FFB8C9" opacity="0.4"/>
</svg>
