<svg xmlns="http://www.w3.org/2000/svg" viewBox="0 0 32 32" width="32" height="32">
  <!-- P.E.T Favicon v2 — Cute cat face minimal -->
  <circle cx="16" cy="16" r="15" fill="#FF6B35"/>

  <!-- 귀 -->
  <path d="M8 13 Q7 5 11 8 Q13 9 12.5 12 Z" fill="#FFF"/>
  <path d="M24 13 Q25 5 21 8 Q19 9 19.5 12 Z" fill="#FFF"/>

  <!-- 얼굴 -->
  <circle cx="16" cy="18" r="9" fill="#FFF"/>

  <!-- 눈 -->
  <circle cx="13" cy="17" r="2" fill="#2D2D2D"/>
  <circle cx="12.4" cy="16.4" r="0.7" fill="#FFF"/>
  <circle cx="19" cy="17" r="2" fill="#2D2D2D"/>
  <circle cx="18.4" cy="16.4" r="0.7" fill="#FFF"/>

  <!-- 코 하트 -->
  <path d="M16 20.5 C16 20.5 14.5 19 14 19.5 C13.5 20 13.5 20.8 14.5 21.5 L16 22.5 L17.5 21.5 C18.5 20.8 18.5 20 18 19.5 C17.5 19 16 20.5 16 20.5Z" fill="#FFB8C9"/>

  <!-- 볼 -->
  <circle cx="10" cy="20" r="1.8" fill="#FFB8C9" opacity="0.5"/>
  <circle cx="22" cy="20" r="1.8" fill="#FFB8C9" opacity="0.5"/>
</svg>
