<svg xmlns="http://www.w3.org/2000/svg" viewBox="0 0 480 140" width="480" height="140">
  <!-- P.E.T Horizontal Logo v3 — 캐릭터 + 텍스트 -->
  <defs>
    <linearGradient id="hbg" x1="0" y1="0" x2="0" y2="1">
      <stop offset="0%" stop-color="#FF8A5C"/>
      <stop offset="100%" stop-color="#FF6B35"/>
    </linearGradient>
  </defs>

  <!-- 캐릭터 아이콘 (축소) -->
  <g transform="translate(8, 5) scale(0.25)">
    <rect x="16" y="16" width="480" height="480" rx="110" ry="110" fill="url(#hbg)"/>
    <ellipse cx="256" cy="420" rx="120" ry="14" fill="#E85D2A" opacity="0.3"/>
    <ellipse cx="256" cy="350" rx="105" ry="80" fill="#FFF"/>
    <circle cx="256" cy="248" r="138" fill="#FFF"/>
    <path d="M152 180 C135 90, 160 70, 185 90 C210 110, 200 165, 190 185 Z" fill="#FFF"/>
    <path d="M162 175 C150 105, 168 88, 186 100 C200 115, 196 160, 190 178 Z" fill="#FFB8C9"/>
    <path d="M360 180 C377 90, 352 70, 327 90 C302 110, 312 165, 322 185 Z" fill="#FFF"/>
    <path d="M350 175 C362 105, 344 88, 326 100 C312 115, 316 160, 322 178 Z" fill="#FFB8C9"/>
    <ellipse cx="206" cy="240" rx="30" ry="32" fill="#2D2D2D"/>
    <ellipse cx="195" cy="228" rx="12" ry="13" fill="#FFF"/>
    <circle cx="214" cy="250" r="6" fill="#FFF"/>
    <ellipse cx="306" cy="240" rx="30" ry="32" fill="#2D2D2D"/>
    <ellipse cx="295" cy="228" rx="12" ry="13" fill="#FFF"/>
    <circle cx="314" cy="250" r="6" fill="#FFF"/>
    <path d="M248 288 L256 298 L264 288 Q256 282 248 288Z" fill="#FF8FAB"/>
    <path d="M236 302 Q246 314 256 304 Q266 314 276 302" fill="none" stroke="#2D2D2D" stroke-width="2.8" stroke-linecap="round"/>
    <circle cx="164" cy="272" r="28" fill="#FFB8C9" opacity="0.45"/>
    <circle cx="348" cy="272" r="28" fill="#FFB8C9" opacity="0.45"/>
    <ellipse cx="185" cy="390" rx="35" ry="24" fill="#FFF"/>
    <ellipse cx="185" cy="393" rx="14" ry="10" fill="#FFB8C9"/>
    <circle cx="173" cy="383" r="5.5" fill="#FFB8C9"/>
    <circle cx="185" cy="379" r="5.5" fill="#FFB8C9"/>
    <circle cx="197" cy="383" r="5.5" fill="#FFB8C9"/>
    <ellipse cx="327" cy="390" rx="35" ry="24" fill="#FFF"/>
    <ellipse cx="327" cy="393" rx="14" ry="10" fill="#FFB8C9"/>
    <circle cx="315" cy="383" r="5.5" fill="#FFB8C9"/>
    <circle cx="327" cy="379" r="5.5" fill="#FFB8C9"/>
    <circle cx="339" cy="383" r="5.5" fill="#FFB8C9"/>
  </g>

  <!-- "P.E.T" 텍스트 — 둥글고 도톰한 폰트 스타일 -->
  <g fill="#FF6B35">
    <!-- P — 둥근 볼드체 -->
    <path d="M168 35 C168 35, 168 100, 168 100 C168 105, 172 108, 176 108 C180 108, 184 105, 184 100 L184 80 L200 80 C216 80, 224 70, 224 56 C224 42, 216 32, 200 32 L180 32 C172 32, 168 35, 168 35Z M184 48 L198 48 C206 48, 210 52, 210 56 C210 61, 206 65, 198 65 L184 65 Z"/>
    <!-- 점 -->
    <circle cx="237" cy="102" r="6"/>
    <!-- E -->
    <path d="M256 35 C256 35, 256 100, 256 100 C256 105, 260 108, 264 108 L296 108 C300 108, 304 105, 304 100 C304 96, 300 93, 296 93 L272 93 L272 76 L290 76 C294 76, 297 73, 297 69 C297 65, 294 62, 290 62 L272 62 L272 48 L294 48 C298 48, 302 45, 302 41 C302 37, 298 34, 294 34 L264 34 C260 34, 256 37, 256 35Z"/>
    <!-- 점 -->
    <circle cx="317" cy="102" r="6"/>
    <!-- T -->
    <path d="M336 34 L370 34 C374 34, 378 37, 378 41 C378 45, 374 48, 370 48 L362 48 L362 100 C362 105, 358 108, 354 108 C350 108, 346 105, 346 100 L346 48 L338 48 C334 48, 330 45, 330 41 C330 37, 334 34, 336 34Z"/>
  </g>

  <!-- 서브타이틀 -->
  <text x="168" y="128" font-family="Arial, 'Apple SD Gothic Neo', sans-serif" font-size="13" fill="#AAAAAA" letter-spacing="1.5">Pet Ever Total</text>

  <!-- 하트 장식 -->
  <g transform="translate(394, 48)">
    <path d="M0 8 C0 8, -6 0, -10 2 C-14 4, -14 10, -10 14 L0 22 L10 14 C14 10, 14 4, 10 2 C6 0, 0 8, 0 8Z" fill="#FF8FAB" opacity="0.6"/>
  </g>

  <!-- 작은 발바닥 장식 -->
  <g transform="translate(406, 85)" fill="#FFB8C9" opacity="0.5">
    <ellipse cx="8" cy="10" rx="6" ry="4.5"/>
    <circle cx="3" cy="4" r="2.5"/>
    <circle cx="8" cy="2" r="2.5"/>
    <circle cx="13" cy="4" r="2.5"/>
  </g>
</svg>
