<svg xmlns="http://www.w3.org/2000/svg" viewBox="0 0 520 120" width="520" height="120">
  <!-- P.E.T Horizontal Logo v2 — Cute cat + rounded text -->

  <!-- === Cat Icon (scaled to fit) === -->
  <g transform="translate(5, 2) scale(0.22)">
    <circle cx="256" cy="256" r="240" fill="#FF6B35"/>
    <!-- 귀 -->
    <path d="M148 200 Q130 100 180 130 Q200 140 195 190 Z" fill="#FFF"/>
    <path d="M364 200 Q382 100 332 130 Q312 140 317 190 Z" fill="#FFF"/>
    <path d="M158 195 Q147 125 185 145 Q197 152 194 188 Z" fill="#FFB8C9" opacity="0.6"/>
    <path d="M354 195 Q365 125 327 145 Q315 152 318 188 Z" fill="#FFB8C9" opacity="0.6"/>
    <!-- 얼굴 -->
    <circle cx="256" cy="280" r="130" fill="#FFF"/>
    <!-- 눈 -->
    <circle cx="210" cy="262" r="28" fill="#2D2D2D"/>
    <circle cx="200" cy="252" r="10" fill="#FFF"/>
    <circle cx="216" cy="268" r="5" fill="#FFF"/>
    <circle cx="302" cy="262" r="28" fill="#2D2D2D"/>
    <circle cx="292" cy="252" r="10" fill="#FFF"/>
    <circle cx="308" cy="268" r="5" fill="#FFF"/>
    <!-- 코 하트 -->
    <path d="M256 306 C256 306 248 296 242 300 C236 304 236 312 242 316 L256 328 L270 316 C276 312 276 304 270 300 C264 296 256 306 256 306Z" fill="#FFB8C9"/>
    <!-- 입 -->
    <path d="M240 328 Q256 340 272 328" fill="none" stroke="#2D2D2D" stroke-width="2.5" stroke-linecap="round"/>
    <!-- 볼 -->
    <circle cx="176" cy="300" r="22" fill="#FFB8C9" opacity="0.5"/>
    <circle cx="336" cy="300" r="22" fill="#FFB8C9" opacity="0.5"/>
  </g>

  <!-- === "P.E.T" Text — Rounded, friendly font style === -->
  <g fill="#FF6B35">
    <!-- P -->
    <path d="M140,32 C140,32 140,88 140,88 C140,92 142,94 146,94 C150,94 152,92 152,88 L152,72 L164,72 C178,72 186,63 186,52 C186,41 178,32 164,32 Z M152,44 L162,44 C169,44 174,47 174,52 C174,57 169,60 162,60 L152,60 Z"/>
    <!-- Dot -->
    <circle cx="197" cy="88" r="5.5"/>
    <!-- E -->
    <path d="M214,32 C214,32 214,88 214,88 C214,92 216,94 220,94 L252,94 C256,94 258,92 258,88 C258,84 256,82 252,82 L226,82 L226,68 L246,68 C250,68 252,66 252,62 C252,58 250,56 246,56 L226,56 L226,44 L250,44 C254,44 256,42 256,38 C256,34 254,32 250,32 Z"/>
    <!-- Dot -->
    <circle cx="269" cy="88" r="5.5"/>
    <!-- T -->
    <path d="M286,32 L324,32 C328,32 330,34 330,38 C330,42 328,44 324,44 L312,44 L312,88 C312,92 310,94 306,94 C302,94 300,92 300,88 L300,44 L288,44 C284,44 282,42 282,38 C282,34 284,32 286,32 Z"/>
  </g>

  <!-- "펫에토" subtitle -->
  <text x="143" y="115" font-family="Arial, sans-serif" font-size="14" fill="#AAAAAA" letter-spacing="3">Pet Ever Total</text>

  <!-- 하트 장식 -->
  <path d="M350,50 C350,50 346,44 342,47 C338,50 338,56 342,59 L350,66 L358,59 C362,56 362,50 358,47 C354,44 350,50 350,50Z" fill="#FFB8C9" opacity="0.7"/>

  <!-- 작은 발바닥 -->
  <g transform="translate(370, 42) scale(0.35)" opacity="0.4">
    <circle cx="40" cy="30" r="14" fill="#FF6B35"/>
    <circle cx="18" cy="10" r="7" fill="#FF6B35"/>
    <circle cx="40" cy="4" r="7" fill="#FF6B35"/>
    <circle cx="62" cy="10" r="7" fill="#FF6B35"/>
  </g>
</svg>
